<svg aria-hidden="true" style="position: absolute; width: 0; height: 0; overflow: hidden;" version="1.1" xmlns="http://www.w3.org/2000/svg" xmlns:xlink="http://www.w3.org/1999/xlink">
<defs>
<symbol id="iconCart-1" viewBox="0 0 32 32">
<path fill="#efefef" style="fill: var(--color1, #efefef)" d="M16 32c8.836 0 16-7.164 16-16s-7.164-16-16-16-16 7.164-16 16 7.164 16 16 16z"></path>
<path fill="none" stroke="#3c3d3d" style="stroke: var(--color2, #3c3d3d)" stroke-linejoin="round" stroke-linecap="round" stroke-miterlimit="4" stroke-width="1.28" d="M13.44 23.040c0.353 0 0.64-0.287 0.64-0.64s-0.287-0.64-0.64-0.64v0c-0.353 0-0.64 0.287-0.64 0.64s0.287 0.64 0.64 0.64v0zM20.48 23.040c0.353 0 0.64-0.287 0.64-0.64s-0.287-0.64-0.64-0.64v0c-0.353 0-0.64 0.287-0.64 0.64s0.287 0.64 0.64 0.64v0zM8.32 9.6h2.56l1.715 8.57c0.121 0.592 0.637 1.031 1.255 1.031 0.009 0 0.017-0 0.026-0l-0.001 0h6.221c0.007 0 0.016 0 0.025 0 0.619 0 1.135-0.439 1.254-1.022l0.001-0.008 1.024-5.37h-10.88"></path>
</symbol>
</defs>
</svg>
