<svg aria-hidden="true" style="position:absolute;width:0;height:0" xmlns="http://www.w3.org/2000/svg" overflow="hidden"><defs>
<symbol id="button-arrow" viewBox="0 0 40 32">
<path d="M38.22 17.415a2 2 0 000-2.828L25.492 1.859a2 2 0 10-2.828 2.828l11.314 11.314-11.314 11.314a2 2 0 102.828 2.828L38.22 17.415zM.633 18h36.173v-4H.633v4z"/></symbol><symbol id="icon-fb" viewBox="0 0 19 32"><path d="M17.741.007L13.591 0C8.929 0 5.916 3.091 5.916 7.875v3.631H1.744a.652.652 0 00-.652.653v5.261c0 .361.292.653.652.653h4.172v13.275c0 .361.292.652.652.652h5.444a.651.651 0 00.652-.652V18.073h4.878a.652.652 0 00.652-.653l.002-5.261a.652.652 0 00-.653-.652h-4.88V8.429c0-1.479.353-2.231 2.28-2.231l2.795-.001c.36 0 .652-.292.652-.652V.66a.652.652 0 00-.652-.652z"/></symbol><symbol id="icon-cart" viewBox="0 0 32 32"><path fill="#efefef" style="fill: var(--color1, #efefef)" d="M16 32c8.837 0 16-7.163 16-16S24.837 0 16 0 0 7.163 0 16s7.163 16 16 16z"/><path fill="none" stroke="#3c3d3d" style="stroke: var(--color2, #3c3d3d)" stroke-linejoin="round" stroke-linecap="round" stroke-width="1.28" d="M13.44 23.04a.64.64 0 10-.001-1.281.64.64 0 00.001 1.281zM20.48 23.04a.64.64 0 10-.001-1.281.64.64 0 00.001 1.281zM8.32 9.6h2.56l1.715 8.57a1.284 1.284 0 001.28 1.031h6.221a1.276 1.276 0 001.28-1.031L22.4 12.8H11.52"/></symbol><symbol id="icon-profile" viewBox="0 0 32 32"><path fill="#efefef" style="fill: var(--color1, #efefef)" d="M16 32c8.837 0 16-7.163 16-16S24.837 0 16 0 0 7.163 0 16s7.163 16 16 16z"/><path fill="none" stroke="#3c3d3d" style="stroke: var(--color2, #3c3d3d)" stroke-linejoin="round" stroke-linecap="round" stroke-width="1.28" d="M21.12 21.12v-1.28a2.56 2.56 0 00-2.56-2.56h-5.12a2.56 2.56 0 00-2.56 2.56v1.28M16 14.72a2.56 2.56 0 100-5.12 2.56 2.56 0 000 5.12z"/></symbol><symbol id="icon-insta" viewBox="0 0 34 32"><path d="M17.015 10.247c-2.823 0-5.127 2.304-5.127 5.127s2.304 5.127 5.127 5.127 5.127-2.304 5.127-5.127-2.304-5.127-5.127-5.127zm15.377 5.127c0-2.123.019-4.227-.1-6.346-.119-2.462-.681-4.646-2.481-6.446C28.007.778 25.826.22 23.365.101c-2.123-.119-4.227-.1-6.346-.1-2.123 0-4.227-.019-6.346.1C8.211.22 6.027.782 4.227 2.582 2.423 4.386 1.865 6.567 1.746 9.028c-.119 2.123-.1 4.227-.1 6.346s-.019 4.227.1 6.346c.119 2.462.681 4.646 2.481 6.446 1.804 1.804 3.985 2.361 6.446 2.481 2.123.119 4.227.1 6.346.1 2.123 0 4.227.019 6.346-.1 2.462-.119 4.646-.681 6.446-2.481 1.804-1.804 2.362-3.985 2.481-6.446.123-2.119.1-4.223.1-6.346zm-15.377 7.889c-4.365 0-7.888-3.523-7.888-7.888s3.523-7.888 7.888-7.888 7.889 3.523 7.889 7.888-3.523 7.888-7.889 7.888zm8.211-14.258c-1.019 0-1.842-.823-1.842-1.842s.823-1.842 1.842-1.842a1.84 1.84 0 011.702 2.547 1.829 1.829 0 01-1.702 1.137z"/></symbol><symbol id="icon-main-logo" viewBox="0 0 179 32"><path d="M52.039.344h-6.925l-4.817 30.107h4.344l.817-5.462h5.806l.817 5.462h4.774L52.038.344zM48.34 5.678l2.28 15.226h-4.559l2.28-15.226zM73.769 30.452c-.473-1.118-.516-2.194-.516-3.656v-4.645c0-3.14-.774-5.419-3.14-6.409 2.108-.989 3.097-3.011 3.097-6.107V7.269c0-4.645-2.107-6.925-7.011-6.925h-7.14v30.107h4.731V18.193h1.634c2.151 0 3.097 1.032 3.097 3.828v4.731c0 2.452.172 2.925.43 3.699h4.817zM66.07 4.645c1.677 0 2.409.946 2.409 3.097v2.968c0 2.409-1.075 3.183-2.839 3.183h-1.849V4.646h2.28zM80.709 7.269c0-2.151.946-2.968 2.452-2.968s2.452.817 2.452 2.968v16.258c0 2.151-.946 2.968-2.452 2.968s-2.452-.817-2.452-2.968V7.269zm-4.731 15.957c0 4.817 2.538 7.57 7.183 7.57s7.183-2.753 7.183-7.57V7.57c0-4.817-2.538-7.57-7.183-7.57s-7.183 2.753-7.183 7.57v15.656zM100.385.344h-6.968v30.107h4.731V19.139h2.237c4.731 0 7.054-2.624 7.054-7.441V7.784c0-4.817-2.323-7.441-7.054-7.441zm0 4.301c1.505 0 2.323.688 2.323 2.839V12c0 2.15-.817 2.839-2.323 2.839h-2.237V4.646h2.237zM115.143 4.645h4.946v25.806h4.731V4.645h4.946V.344h-14.624v4.301zM136.581 4.645h8.172V.344h-12.902v30.107h12.902V26.15h-8.172v-8.817h6.495v-4.301h-6.495V4.645zM156.932 19.226v4.301c0 2.151-.946 2.925-2.451 2.925s-2.452-.774-2.452-2.925V7.269c0-2.151.947-2.968 2.452-2.968s2.451.817 2.451 2.968v3.226h4.474V7.57c0-4.817-2.409-7.57-7.054-7.57s-7.054 2.753-7.054 7.57v15.656c0 4.817 2.409 7.57 7.054 7.57s7.054-2.753 7.054-7.57v-4h-4.474zM169.006 17.549h5.377v12.903h4.817V.345h-4.817v12.903h-5.377V.345h-4.731v30.107h4.731V17.549zM4.779.185H0v14.337h4.779V.185zM4.779 24.079H0v6.372h4.779v-6.372zM14.336.185H9.557v9.558h4.779V.185zM23.894.185h-4.779v14.337h4.779V.185zM14.336 19.301H9.557v11.151h4.779V19.301zM23.894 24.079h-4.779v6.372h4.779v-6.372z"/></symbol><symbol id="icon-star" viewBox="0 0 35 32"><path d="M32.427 11.268l-10.046-1.46L17.89.704a1.261 1.261 0 00-.574-.574 1.27 1.27 0 00-1.697.574l-4.491 9.104-10.046 1.46a1.265 1.265 0 00-.7 2.16l7.268 7.086L5.933 30.52a1.257 1.257 0 001.155 1.476c.236.017.471-.033.68-.143l8.985-4.724 8.985 4.724a1.266 1.266 0 001.836-1.333l-1.717-10.006 7.268-7.086a1.26 1.26 0 00.368-.724 1.262 1.262 0 00-1.068-1.436z"/><path d="M32.427 11.268l-10.046-1.46L17.89.704a1.261 1.261 0 00-.574-.574 1.27 1.27 0 00-1.697.574l-4.491 9.104-10.046 1.46a1.265 1.265 0 00-.7 2.16l7.268 7.086L5.933 30.52a1.257 1.257 0 001.155 1.476c.236.017.471-.033.68-.143l8.985-4.724 8.985 4.724a1.266 1.266 0 001.836-1.333l-1.717-10.006 7.268-7.086a1.26 1.26 0 00.368-.724 1.262 1.262 0 00-1.068-1.436z"/></symbol><symbol id="icon-text-arrow" viewBox="0 0 37 32"><path stroke-linejoin="round" stroke-linecap="round" stroke-width="3.429" d="M2.286 16h32M20.571 2.286L34.285 16 20.571 29.714"/></symbol><symbol id="icon-twitter" viewBox="0 0 39 32"><path d="M37.094 5.212c-1.349.58-2.698.942-4.046 1.088 1.523-.914 2.553-2.204 3.09-3.872a13.819 13.819 0 01-4.46 1.697c-1.392-1.479-3.104-2.219-5.134-2.219-1.943 0-3.6.685-4.971 2.056s-2.056 3.027-2.056 4.971c0 .522.058 1.059.174 1.61-2.872-.145-5.566-.867-8.082-2.165S6.957 5.35 5.202 3.189a6.887 6.887 0 00-.957 3.546c0 1.204.283 2.321.849 3.35s1.327 1.863 2.284 2.502a6.978 6.978 0 01-3.176-.892v.087c0 1.697.533 3.187 1.599 4.471s2.411 2.092 4.036 2.426a7.295 7.295 0 01-1.849.239c-.406 0-.849-.036-1.327-.108.45 1.407 1.276 2.563 2.48 3.47s2.567 1.373 4.09 1.403c-2.552 2.001-5.46 3.002-8.724 3.002-.624 0-1.189-.028-1.697-.087 3.263 2.103 6.86 3.154 10.79 3.154 2.495 0 4.837-.395 7.026-1.186 2.191-.79 4.061-1.849 5.613-3.176s2.89-2.853 4.014-4.579c1.124-1.726 1.961-3.528 2.513-5.406s.827-3.76.827-5.646c0-.406-.007-.711-.022-.914 1.378-1 2.553-2.211 3.525-3.632z"/></symbol><symbol id="icon-vk" viewBox="0 0 52 32"><path d="M50.824 26.436a3.302 3.302 0 00-.164-.316c-.841-1.515-2.449-3.375-4.822-5.579l-.075-.075-.026-.025h-.025c-1.077-1.027-1.759-1.717-2.045-2.07-.522-.673-.639-1.355-.354-2.045.202-.522.96-1.623 2.272-3.307.69-.892 1.237-1.607 1.641-2.146 2.912-3.871 4.174-6.345 3.786-7.422l-.15-.252c-.101-.152-.362-.29-.783-.417s-.959-.147-1.616-.063l-7.27.05c-.118-.042-.286-.038-.505.013l-.328.076-.127.063-.1.076c-.084.05-.177.139-.278.265s-.185.273-.252.442a41.29 41.29 0 01-2.701 5.68c-.623 1.044-1.195 1.948-1.717 2.714s-.959 1.329-1.312 1.691c-.354.362-.673.652-.96.871s-.504.312-.656.278-.294-.067-.429-.101c-.236-.152-.425-.358-.568-.618s-.24-.589-.291-.985c-.05-.396-.08-.736-.088-1.022s-.004-.69.013-1.212.025-.875.025-1.06c0-.64.012-1.334.038-2.083s.046-1.342.063-1.779c.017-.438.025-.901.025-1.389s-.03-.871-.088-1.149c-.058-.277-.147-.547-.264-.808s-.291-.463-.518-.606a2.91 2.91 0 00-.846-.341c-.892-.202-2.028-.311-3.408-.328-3.13-.034-5.141.169-6.033.606a3.418 3.418 0 00-.959.757c-.303.37-.345.573-.127.606 1.01.151 1.725.513 2.146 1.085l.152.303c.118.219.236.606.354 1.161s.194 1.17.227 1.842c.084 1.229.084 2.281 0 3.156s-.164 1.557-.24 2.045-.189.884-.341 1.186c-.152.303-.253.488-.303.555s-.093.11-.126.126c-.219.084-.446.127-.682.127s-.522-.118-.858-.354c-.336-.236-.686-.56-1.047-.972s-.77-.989-1.225-1.729a30.371 30.371 0 01-1.414-2.625l-.404-.732c-.252-.471-.597-1.157-1.035-2.057s-.825-1.772-1.161-2.613a1.67 1.67 0 00-.606-.808l-.126-.076c-.084-.067-.219-.139-.404-.215s-.379-.13-.581-.164l-6.917.05c-.707 0-1.186.16-1.439.48l-.101.151c-.05.084-.076.219-.076.404s.05.412.152.681c1.01 2.373 2.108 4.662 3.294 6.866s2.217 3.98 3.092 5.326c.875 1.347 1.767 2.617 2.676 3.812s1.51 1.961 1.805 2.297c.295.337.526.589.694.757l.631.606c.404.404.997.888 1.78 1.451s1.649 1.119 2.6 1.667c.951.547 2.057.992 3.32 1.337s2.491.484 3.686.417h2.903c.588-.051 1.034-.236 1.338-.555l.1-.127c.067-.101.131-.256.189-.467s.088-.442.088-.694c-.017-.724.038-1.376.164-1.956s.269-1.018.43-1.313c.16-.294.341-.543.543-.744s.346-.324.43-.366a1.7 1.7 0 01.201-.088c.404-.135.879-.004 1.427.392s1.06.884 1.54 1.464c.48.581 1.056 1.233 1.729 1.956s1.263 1.262 1.767 1.616l.505.303c.337.202.775.387 1.313.555.538.168 1.009.21 1.413.126l6.462-.101c.639 0 1.136-.106 1.489-.316s.563-.442.631-.694c.068-.252.071-.539.013-.859-.06-.319-.119-.543-.177-.669z"/></symbol><symbol id="icon-youtube" viewBox="0 0 39 32"><path d="M37.455 3.995c-1.407-1.672-4.004-2.354-8.965-2.354H10.483c-5.074 0-7.716.726-9.117 2.507C-.001 5.884-.001 8.442-.001 11.982v6.747c0 6.858 1.621 10.34 10.484 10.34H28.49c4.302 0 6.686-.602 8.228-2.078 1.582-1.513 2.256-3.984 2.256-8.262v-6.747c0-3.733-.106-6.306-1.519-7.986zM25.022 16.286l-8.177 4.273a1.252 1.252 0 01-1.233-.039 1.258 1.258 0 01-.606-1.075v-8.519a1.257 1.257 0 011.836-1.115l8.177 4.246a1.257 1.257 0 01.003 2.23z"/></symbol><symbol id="icon-icon-play" viewBox="0 0 26 32"><path d="M26 16.002c0 .797-.793 1.371-.793 1.371L2.948 31.514C1.326 32.605 0 31.797 0 29.73V2.272C0 .2 1.326-.603 2.951.485L25.21 14.631c-.003 0 .79.573.79 1.371z"/></symbol></defs></svg>